<?xml version="1.0" standalone="no"?><!DOCTYPE svg PUBLIC "-//W3C//DTD SVG 1.1//EN" "http://www.w3.org/Graphics/SVG/1.1/DTD/svg11.dtd"><svg t="1642309344346" class="icon" viewBox="0 0 1024 1024" version="1.1" xmlns="http://www.w3.org/2000/svg" p-id="26992" xmlns:xlink="http://www.w3.org/1999/xlink" width="200" height="200"><defs><style type="text/css"></style></defs><path d="M126.160164 820.041068h77.798768v77.798768H126.160164z m126.160165-48.361397V946.201232H77.798768v-174.521561z m7.359342-77.798768h-189.240246A70.439425 70.439425 0 0 0 0 764.320329v189.240246a70.439425 70.439425 0 0 0 70.439425 70.439425h189.240246a70.439425 70.439425 0 0 0 70.439426-70.439425v-189.240246a70.439425 70.439425 0 0 0-70.439426-70.439426z m560.361397 126.160165h77.798768v77.798768H820.041068z m126.160164-48.361397V946.201232h-174.521561v-174.521561z m7.359343-77.798768h-189.240246a70.439425 70.439425 0 0 0-70.439426 70.439426v189.240246a70.439425 70.439425 0 0 0 70.439426 70.439425h189.240246a70.439425 70.439425 0 0 0 70.439425-70.439425v-189.240246a70.439425 70.439425 0 0 0-70.439425-70.439426zM820.041068 126.160164h77.798768v77.798768H820.041068z m126.160164-48.361396V252.320329h-174.521561V77.798768zM953.560575 0h-189.240246a70.439425 70.439425 0 0 0-70.439426 70.439425v189.240246a70.439425 70.439425 0 0 0 70.439426 70.439426h189.240246a70.439425 70.439425 0 0 0 70.439425-70.439426v-189.240246A70.439425 70.439425 0 0 0 953.560575 0zM126.160164 126.160164h77.798768v77.798768H126.160164z m-48.361396 126.160165V77.798768H252.320329V252.320329z m-7.359343 77.798768h189.240246a70.439425 70.439425 0 0 0 70.439426-70.439426v-189.240246A70.439425 70.439425 0 0 0 259.679671 0h-189.240246A70.439425 70.439425 0 0 0 0 70.439425v189.240246a70.439425 70.439425 0 0 0 70.439425 70.439426zM0 567.720739h77.798768v77.798768H0zM456.279261 630.800821H378.480493v203.958933h63.080082v48.361396H378.480493v77.798768h126.160164v63.080082h77.798768v-63.080082h63.080082V883.12115H567.720739V946.201232h-48.361396v-111.441478h126.160164V756.960986h-189.240246z m504.640657-252.320328H883.12115v126.160164h-111.441479V378.480493h-189.240246V252.320329h-63.080082v-48.361397h63.080082v-63.080082h63.080082V63.080082h-63.080082V0H378.480493v77.798768h126.160164v48.361396H441.560575v140.87885h63.080082V378.480493H441.560575v63.080082H330.119097V378.480493H252.320329v63.080082h-48.361397V378.480493H63.080082v63.080082H0v77.798768h77.798768v-63.080082H189.240246v63.080082h63.080083v126.160164h77.798768v-126.160164h126.160164v-63.080082h237.601642v48.361396H504.640657v77.798768h63.080082v126.160164h140.87885V630.800821h-63.080082v-48.361396h252.320329v-63.080082H946.201232v63.080082h77.798768V504.640657h-63.080082z" fill="#5E5C5C" p-id="26993"></path></svg>