<?xml version="1.0" standalone="no"?><!DOCTYPE svg PUBLIC "-//W3C//DTD SVG 1.1//EN" "http://www.w3.org/Graphics/SVG/1.1/DTD/svg11.dtd"><svg t="1641868647365" class="icon" viewBox="0 0 1024 1024" version="1.1" xmlns="http://www.w3.org/2000/svg" p-id="4587" xmlns:xlink="http://www.w3.org/1999/xlink" width="200" height="200"><defs><style type="text/css"></style></defs><path d="M513 98.3c-228.4 0-413.5 185.2-413.5 413.6 0 228.4 185.2 413.5 413.5 413.5 228.4 0 413.6-185.2 413.6-413.5 0-228.5-185.2-413.6-413.6-413.6z m0 768c-195.4 0-354.4-159-354.4-354.4 0-195.5 159-354.5 354.4-354.5 195.5 0 354.4 159 354.4 354.5 0 195.3-158.9 354.4-354.4 354.4z" fill="#666666" p-id="4588"></path><path d="M315.8 728.7l335.6-78.5 78.5-335.6-335.5 78.5-78.6 335.6z m127.7-286.4l207.2-48.5L602.2 601 395 649.5l48.5-207.2z" fill="#666666" p-id="4589"></path><path d="M522.8 472.4c-27.2 0-49.2 22-49.2 49.3 0 27.2 22 49.2 49.2 49.2 27.2 0 49.2-22 49.2-49.2 0.1-27.3-22-49.3-49.2-49.3z" fill="#666666" p-id="4590"></path></svg>