<?xml version="1.0" standalone="no"?><!DOCTYPE svg PUBLIC "-//W3C//DTD SVG 1.1//EN" "http://www.w3.org/Graphics/SVG/1.1/DTD/svg11.dtd"><svg t="1642306358918" class="icon" viewBox="0 0 1024 1024" version="1.1" xmlns="http://www.w3.org/2000/svg" p-id="9783" xmlns:xlink="http://www.w3.org/1999/xlink" width="200" height="200"><defs><style type="text/css"></style></defs><path d="M798.805098 238.464113l-92.082208 0c-0.820692-2.323928-1.660826-4.649903-2.52245-6.976902C663.682631 122.032334 597.339644 64.177672 512.339738 64.177672c-84.957951 0-151.549601 57.828057-192.573947 167.230746-0.883113 2.353604-1.74269 4.706185-2.583848 7.05672l-90.597391 0c-60.676941 0-110.042255 49.364291-110.042255 110.042255l0 502.192633c0 60.677964 49.364291 110.042255 110.042255 110.042255l572.219523 0c60.677964 0 110.042255-49.364291 110.042255-110.042255L908.84633 348.506369C908.847353 287.829428 859.482039 238.464113 798.805098 238.464113zM512.339738 104.192014c78.717829 0 124.863822 65.526389 151.61714 134.2721L360.01447 238.464113C387.114688 169.71124 433.596326 104.192014 512.339738 104.192014zM868.831988 850.699002c0 38.612413-31.414477 70.02689-70.02689 70.02689L226.585575 920.725892c-38.613436 0-70.02689-31.414477-70.02689-70.02689L156.558685 348.506369c0-38.613436 31.413454-70.02689 70.02689-70.02689l77.985142 0c-9.727549 35.276435-15.084557 67.037812-17.891486 87.806835-14.609743 6.500041-24.800849 21.132296-24.800849 38.152948 0 23.057135 18.691711 41.74987 41.74987 41.74987 23.057135 0 41.74987-18.691711 41.74987-41.74987 0-14.528901-7.426133-27.320229-18.684548-34.797527 3.044336-21.586644 8.93244-55.110155 19.615757-91.162256l331.156212 0c10.44591 35.853579 16.162098 69.199035 19.111267 90.775446-11.596106 7.417947-19.289322 20.398586-19.289322 35.18536 0 23.057135 18.691711 41.74987 41.74987 41.74987 23.057135 0 41.74987-18.691711 41.74987-41.74987 0-16.753569-9.872858-31.194466-24.114211-37.842887-2.701528-20.782326-7.916297-52.68185-17.523095-88.11792l79.656201 0c38.612413 0 70.02689 31.413454 70.02689 70.02689L868.833011 850.699002z" p-id="9784" fill="#d81e06"></path></svg>