<?xml version="1.0" standalone="no"?><!DOCTYPE svg PUBLIC "-//W3C//DTD SVG 1.1//EN" "http://www.w3.org/Graphics/SVG/1.1/DTD/svg11.dtd"><svg t="1641868565648" class="icon" viewBox="0 0 1024 1024" version="1.1" xmlns="http://www.w3.org/2000/svg" p-id="2864" xmlns:xlink="http://www.w3.org/1999/xlink" width="200" height="200"><defs><style type="text/css"></style></defs><path d="M486.2976 102.314667c-240.315733 0-435.131733 170.530133-435.131733 380.893867 0 120.2176 63.778133 227.259733 163.1744 297.0624l0 192.6656 190.634667-115.729067c26.368 4.369067 53.504 6.877867 81.322667 6.877867 240.315733 0 435.1488-170.513067 435.1488-380.8768S726.596267 102.314667 486.2976 102.314667zM268.731733 537.634133c-30.037333 0-54.391467-24.3712-54.391467-54.408533 0-30.071467 24.354133-54.408533 54.391467-54.408533s54.391467 24.354133 54.391467 54.408533C323.1232 513.262933 298.769067 537.634133 268.731733 537.634133zM486.2976 537.634133c-30.037333 0-54.391467-24.3712-54.391467-54.408533 0-30.071467 24.354133-54.408533 54.391467-54.408533s54.391467 24.354133 54.391467 54.408533C540.689067 513.262933 516.334933 537.634133 486.2976 537.634133zM703.863467 537.634133c-30.0544 0-54.408533-24.3712-54.408533-54.408533 0-30.071467 24.354133-54.408533 54.408533-54.408533 30.037333 0 54.391467 24.354133 54.391467 54.408533C758.254933 513.262933 733.9008 537.634133 703.863467 537.634133z" p-id="2865" fill="#1afa29"></path></svg>