<?xml version="1.0" standalone="no"?><!DOCTYPE svg PUBLIC "-//W3C//DTD SVG 1.1//EN" "http://www.w3.org/Graphics/SVG/1.1/DTD/svg11.dtd"><svg t="1642306456329" class="icon" viewBox="0 0 1024 1024" version="1.1" xmlns="http://www.w3.org/2000/svg" p-id="14388" xmlns:xlink="http://www.w3.org/1999/xlink" width="200" height="200"><defs><style type="text/css"></style></defs><path d="M954.026667 476.16c-3.413333-3.413333-10.24-5.12-15.36-5.12l-81.92 17.066667c-25.6 5.12-44.373333 25.6-49.493334 51.2l-15.36 92.16H240.64c-5.12 0-10.24 3.413333-13.653333 6.826666-3.413333 5.12-3.413333 10.24-1.706667 15.36l46.08 112.64c3.413333 6.826667 8.533333 10.24 15.36 10.24H546.133333l42.666667 129.706667c15.36 44.373333 56.32 73.386667 102.4 73.386667h138.24c59.733333 0 107.52-47.786667 107.52-107.52V648.533333l22.186667-157.013333c0-5.12-1.706667-10.24-5.12-15.36zM783.36 392.533333c5.12 0 10.24-3.413333 13.653333-6.826666 3.413333-5.12 3.413333-10.24 1.706667-15.36l-44.373333-112.64c-3.413333-6.826667-8.533333-10.24-15.36-10.24H479.573333l-42.666666-129.706667c-15.36-44.373333-56.32-73.386667-102.4-73.386667h-138.24C136.533333 42.666667 87.04 90.453333 87.04 150.186667V375.466667l-22.186667 157.013333c0 5.12 1.706667 10.24 5.12 15.36 3.413333 3.413333 6.826667 5.12 11.946667 5.12H85.333333l81.92-17.066667c25.6-5.12 44.373333-25.6 49.493334-51.2l15.36-90.453333h551.253333z" fill="#1296db" p-id="14389"></path></svg>