<?xml version="1.0" standalone="no"?><!DOCTYPE svg PUBLIC "-//W3C//DTD SVG 1.1//EN" "http://www.w3.org/Graphics/SVG/1.1/DTD/svg11.dtd"><svg t="1641895743112" class="icon" viewBox="0 0 1024 1024" version="1.1" xmlns="http://www.w3.org/2000/svg" p-id="2075" xmlns:xlink="http://www.w3.org/1999/xlink" width="200" height="200"><defs><style type="text/css"></style></defs><path d="M824.1 422c11 0 20 9 20 20v240c0 11-9 20-20 20h-680c-11 0-20-9-20-20V442c0-11 9-20 20-20h680m0-60h-680c-44.2 0-80 35.8-80 80v240c0 44.2 35.8 80 80 80h680c44.2 0 80-35.8 80-80V442c0-44.2-35.8-80-80-80z" p-id="2076"></path><path d="M932.1 462h-28v200h28c15.5 0 28-12.5 28-28V490c0-15.5-12.5-28-28-28z" p-id="2077"></path><path d="M144.1 442h680v240h-680z" p-id="2078"></path></svg>