<?xml version="1.0" standalone="no"?><!DOCTYPE svg PUBLIC "-//W3C//DTD SVG 1.1//EN" "http://www.w3.org/Graphics/SVG/1.1/DTD/svg11.dtd"><svg t="1642303628301" class="icon" viewBox="0 0 1092 1024" version="1.1" xmlns="http://www.w3.org/2000/svg" p-id="15362" xmlns:xlink="http://www.w3.org/1999/xlink" width="213.28125" height="200"><defs><style type="text/css"></style></defs><path d="M845.755733 169.984a477.866667 477.866667 0 1 0 64.853334 78.370133l-56.9344 37.6832a409.6 409.6 0 1 1-55.637334-67.242666l47.7184-48.810667z" p-id="15363"></path><path d="M512 716.8a204.8 204.8 0 1 0 0-409.6 204.8 204.8 0 0 0 0 409.6z m0-68.266667a136.533333 136.533333 0 1 1 0-273.066666 136.533333 136.533333 0 0 1 0 273.066666zM921.6 307.2a136.533333 136.533333 0 1 0 0-273.066667 136.533333 136.533333 0 0 0 0 273.066667z m0-68.266667a68.266667 68.266667 0 1 1 0-136.533333 68.266667 68.266667 0 0 1 0 136.533333z" p-id="15364"></path></svg>