<?xml version="1.0" standalone="no"?><!DOCTYPE svg PUBLIC "-//W3C//DTD SVG 1.1//EN" "http://www.w3.org/Graphics/SVG/1.1/DTD/svg11.dtd"><svg t="1641895766360" class="icon" viewBox="0 0 1024 1024" version="1.1" xmlns="http://www.w3.org/2000/svg" p-id="3088" xmlns:xlink="http://www.w3.org/1999/xlink" width="200" height="200"><defs><style type="text/css"></style></defs><path d="M102 409.542c-10.237 0-20.474-3.905-28.284-11.716-15.621-15.621-15.621-40.947 0-56.568 59.201-59.201 128.208-105.043 205.103-136.254C353.087 174.86 431.541 159.576 512 159.576c80.46 0 158.913 15.284 233.182 45.428 76.896 31.21 145.902 77.053 205.103 136.254 15.621 15.621 15.621 40.948 0 56.568-15.621 15.622-40.947 15.621-56.568 0C791.667 295.777 656.104 239.576 512 239.576c-144.104 0-279.667 56.201-381.716 158.25-7.81 7.811-18.047 11.716-28.284 11.716z" p-id="3089"></path><path d="M792 549.07c-10.237 0-20.474-3.905-28.284-11.716-138.797-138.795-364.636-138.795-503.432 0-15.621 15.621-40.947 15.621-56.568 0s-15.621-40.947 0-56.568c41.636-41.636 90.174-73.879 144.269-95.835 52.241-21.204 107.424-31.955 164.015-31.955 56.59 0 111.773 10.751 164.015 31.955 54.094 21.956 102.634 54.199 144.27 95.834 15.621 15.621 15.621 40.948 0 56.569-7.811 7.811-18.049 11.716-28.285 11.716z" p-id="3090"></path><path d="M627 670.096c-10.238 0.001-20.474-3.904-28.285-11.716-23.187-23.188-53.982-35.958-86.715-35.958-32.732 0-63.528 12.77-86.715 35.958-15.621 15.621-40.947 15.621-56.569 0-15.621-15.62-15.621-40.947 0-56.568 38.297-38.298 89.184-59.39 143.285-59.39 54.102 0 104.987 21.092 143.285 59.39 15.62 15.622 15.62 40.948-0.001 56.569-7.81 7.808-18.05 11.714-28.285 11.715z" p-id="3091"></path><path d="M512 769.13m-56.318 0a56.318 56.318 0 1 0 112.636 0 56.318 56.318 0 1 0-112.636 0Z" p-id="3092"></path></svg>