<?xml version="1.0" standalone="no"?><!DOCTYPE svg PUBLIC "-//W3C//DTD SVG 1.1//EN" "http://www.w3.org/Graphics/SVG/1.1/DTD/svg11.dtd"><svg t="1642295627332" class="icon" viewBox="0 0 1024 1024" version="1.1" xmlns="http://www.w3.org/2000/svg" p-id="1846" xmlns:xlink="http://www.w3.org/1999/xlink" width="200" height="200"><defs><style type="text/css"></style></defs><path d="M168.430859 177.37409c67.074236-67.074236 174.393013-67.074236 241.467249 0L168.430859 417.350801c-67.074236-65.583697-67.074236-174.393013 0-239.976711zM918.171761 417.350801L676.704512 177.37409c67.074236-67.074236 174.393013-67.074236 241.467249 0 67.074236 65.583697 67.074236 174.393013 0 239.976711zM778.061135 815.3246c-1.490539-1.490539-2.981077-4.471616-4.471615-5.962155 64.093159-61.112082 104.3377-147.563319 104.3377-242.957787 0-184.826783-150.544396-335.371179-335.371179-335.371179S207.184862 381.577875 207.184862 566.404658c0 95.394469 40.244541 181.845706 104.3377 242.957787-1.490539 1.490539-2.981077 2.981077-4.471616 5.962155l-29.810771 55.149927c-8.943231 16.395924-2.981077 35.772926 13.414847 44.716157 16.395924 8.943231 35.772926 2.981077 44.716157-13.414847l28.320233-50.678312c52.16885 32.791849 113.280932 52.16885 180.355167 52.168851s128.186317-19.377001 180.355168-52.168851l28.320233 50.678312c8.943231 16.395924 28.320233 22.358079 44.716157 13.414847s22.358079-28.320233 13.414847-44.716157l-32.791849-55.149927zM527.650655 350.276565c0-5.962154 7.452693-10.43377 16.395924-10.43377 8.943231 0 14.905386 4.471616 14.905386 10.43377V506.783115c0 5.962154-7.452693 10.43377-14.905386 10.43377-8.943231 0-16.395924-4.471616-16.395924-10.43377V350.276565zM491.877729 621.554585l-86.451237 43.225619c-8.943231 4.471616-19.377001 0-23.848617-8.943232-4.471616-8.943231-1.490539-20.86754 7.452693-25.339155l86.451237-43.225619c8.943231-4.471616 19.377001 0 23.848617 8.943231 4.471616 8.943231 1.490539 20.86754-7.452693 25.339156z m50.678312-11.924308c-23.848617 0-43.225619-19.377001-43.225619-43.225619 0-23.848617 19.377001-43.225619 43.225619-43.225619 23.848617 0 43.225619 19.377001 43.225618 43.225619 0 23.848617-19.377001 43.225619-43.225618 43.225619z" fill="#030000" p-id="1847"></path></svg>