<?xml version="1.0" standalone="no"?><!DOCTYPE svg PUBLIC "-//W3C//DTD SVG 1.1//EN" "http://www.w3.org/Graphics/SVG/1.1/DTD/svg11.dtd"><svg t="1642306378024" class="icon" viewBox="0 0 1024 1024" version="1.1" xmlns="http://www.w3.org/2000/svg" p-id="10504" xmlns:xlink="http://www.w3.org/1999/xlink" width="200" height="200"><defs><style type="text/css"></style></defs><path d="M522.88 408m-68.864 0a1.076 1.076 0 1 0 137.728 0 1.076 1.076 0 1 0-137.728 0Z" p-id="10505" fill="#1296db"></path><path d="M522.88 507.904c-59.52 0-107.712 48.256-107.712 107.776 0 0 48.192 238.08 107.712 238.08 59.456 0 107.776-238.08 107.776-238.08C630.656 556.16 582.336 507.904 522.88 507.904z" p-id="10506" fill="#1296db"></path><path d="M522.88 125.696c-145.088 0-263.168 118.016-263.168 263.168l30.656 0c0-128.192 104.256-232.512 232.448-232.512s232.448 104.256 232.448 232.512l30.656 0C785.92 243.776 667.968 125.696 522.88 125.696z" p-id="10507" fill="#1296db"></path><path d="M522.88 227.264c-89.088 0-161.6 72.512-161.6 161.6l18.816 0c0-78.72 64-142.72 142.784-142.72s142.72 64 142.72 142.72l18.816 0C684.416 299.776 612.032 227.264 522.88 227.264z" p-id="10508" fill="#1296db"></path></svg>